<svg width="173" height="71" viewBox="0 0 173 71" fill="none" xmlns="http://www.w3.org/2000/svg">
<g opacity="0.89237">
<path opacity="0.89237" d="M2.08254 10.5309C2.7563 10.5309 3.3026 11.0772 3.3026 11.751C3.3026 12.4248 2.7563 12.9711 2.08254 12.9711C1.40878 12.9711 0.862488 12.4248 0.862488 11.751C0.862488 11.0772 1.40878 10.5309 2.08254 10.5309Z" fill="#717478"/>
</g>
<g opacity="0.712987">
<path opacity="0.712987" d="M131.715 8.09082C132.389 8.09082 132.934 8.63711 132.934 9.31088C132.934 9.98464 132.389 10.5309 131.715 10.5309C131.041 10.5309 130.496 9.98464 130.496 9.31088C130.496 8.63711 131.041 8.09082 131.715 8.09082Z" fill="#717478"/>
</g>
<g opacity="0.863669">
<path opacity="0.863669" d="M142.767 49.1561C143.442 49.1561 143.986 49.7016 143.986 50.3762C143.986 51.0499 143.442 51.5962 142.767 51.5962C142.093 51.5962 141.548 51.0499 141.548 50.3762C141.548 49.7016 142.093 49.1561 142.767 49.1561Z" fill="#717478"/>
</g>
<g opacity="0.356494">
<path opacity="0.356494" d="M158.569 17.404C159.024 17.404 159.393 17.7729 159.393 18.2282C159.393 18.6834 159.024 19.0524 158.569 19.0524C158.114 19.0524 157.745 18.6834 157.745 18.2282C157.745 17.7729 158.114 17.404 158.569 17.404Z" fill="#717478"/>
</g>
<g opacity="0.748864">
<path opacity="0.748864" d="M33.3781 41.2563C33.8333 41.2563 34.2023 41.6252 34.2023 42.0805C34.2023 42.5357 33.8333 42.9047 33.3781 42.9047C32.9228 42.9047 32.5539 42.5357 32.5539 42.0805C32.5539 41.6252 32.9228 41.2563 33.3781 41.2563Z" fill="#717478"/>
</g>
<g opacity="0.858766">
<path opacity="0.858766" d="M3.30227 55.3104C3.93011 55.3104 4.43919 55.8194 4.43919 56.4473C4.43919 57.0751 3.93011 57.5842 3.30227 57.5842C2.67443 57.5842 2.16534 57.0751 2.16534 56.4473C2.16534 55.8194 2.67443 55.3104 3.30227 55.3104Z" fill="#717478"/>
</g>
<path d="M8.50413 24.4716L6.50611 24.7406L4.96876 26.0448L4.69979 24.0468L3.39558 22.5094L5.3936 22.2405L6.93095 20.9363L7.19992 22.9343L8.50413 24.4716Z" fill="#717478"/>
<path d="M22.1235 36.1034C17.9294 41.2648 13.6452 47.7396 11.5989 52.6511" stroke="#717478" stroke-width="0.791729" stroke-miterlimit="10" stroke-linecap="round" stroke-dasharray="19.79 19.79"/>
<path d="M69.6 19.7628C71.4193 19.7829 88.1344 21.8634 88.1344 21.8634L88.93 25.0227C88.93 25.0227 70.8371 29.3111 68.8465 29.605C65.7464 30.0639 62.8143 27.1439 63.3422 24.0887C63.9809 20.3918 67.7807 19.7427 69.6 19.7628Z" fill="#5E656B"/>
<path d="M92.348 24.9781C92.838 25.7668 93.4519 26.2748 93.0426 26.4408C92.7343 26.5667 91.7681 25.8346 91.5236 25.6836C91.2457 25.5112 91.2714 25.0202 91.594 24.8305C91.8132 24.7024 92.1768 24.7026 92.348 24.9781Z" fill="#A0ACB4"/>
<path d="M91.5331 21.9206C92.5275 21.7277 94.7232 21.2995 94.9429 21.6697C95.1552 22.0274 93.3886 23.3733 92.5435 24.0711C92.1729 24.3782 91.42 24.3338 90.932 23.8179C90.4188 23.276 90.538 22.1132 91.5331 21.9206Z" fill="#A0ACB4"/>
<path d="M87.8702 22.129C87.8887 21.8909 88.0934 21.7118 88.3315 21.7271C89.3197 21.9384 90.7542 22.0334 91.4214 21.9157C92.9033 21.6542 93.3814 23.0206 92.8005 23.7869C92.2935 24.4575 92.1582 24.665 92.3672 25.0197C92.6159 25.4444 92.0499 26.0787 91.4437 25.6199C91.1367 25.3861 90.8288 25.1642 90.477 25.1096C90.1253 25.0542 89.2636 25.1516 88.5665 25.3204C88.3278 25.3605 88.1031 25.1989 88.0638 24.9601C88.0578 24.9245 88.0551 24.8888 88.0578 24.8532L87.8702 22.129Z" fill="#A0ACB4"/>
<path d="M81.8758 49.3774C84.4673 51.4559 90.0571 56.8026 91.4693 60.601L95.2649 61.4862C95.9089 58.1969 95.6322 51.1863 95.2036 48.9488C94.7757 46.7115 93.3513 40.9956 85.3771 40.7048C77.4026 40.4148 79.2843 47.2989 81.8758 49.3774Z" fill="#5E656B"/>
<path d="M95.1164 62.9945L95.3726 61.8206C95.4225 61.5871 95.2747 61.3567 95.0408 61.3058L91.7629 60.5912C91.5298 60.5406 91.2994 60.6884 91.2483 60.9205L90.4333 64.6608C90.3002 65.2739 90.689 65.88 91.3018 66.0138L93.763 66.5498L94.3122 66.6699L96.1873 67.0777C96.699 67.1912 97.2057 66.869 97.3195 66.3565C97.3201 66.3551 97.3202 66.3526 97.3211 66.3504C97.4013 65.9848 97.2597 65.6058 96.9602 65.3833L95.6348 64.3922C95.2024 64.0674 95.0002 63.5213 95.1164 62.9945Z" fill="#A0ACB4"/>
<path d="M75.4993 51.5319C75.9386 53.1793 74.9945 54.8796 73.3637 55.378L70.0806 56.3798C66.3901 57.5123 62.4789 55.4391 61.3464 51.7478C61.3456 51.7478 61.3456 51.747 61.3457 51.7462L53.8998 27.48C52.7673 23.7895 54.8405 19.8776 58.5318 18.745C58.5326 18.7451 58.5326 18.7443 58.5334 18.7443L66.1456 16.4585L75.4993 51.5319Z" fill="#96A0A7"/>
<path d="M75.4655 10.8889L75.458 10.9677C75.4371 11.1884 75.4091 11.3997 75.3645 11.6182C75.3394 11.7987 75.2978 11.9864 75.2483 12.1726C75.1688 12.507 75.0665 12.8313 74.9405 13.1534C74.8753 13.3381 74.7943 13.5205 74.7141 13.6958L74.6983 13.6943L73.2056 13.5852L68.6731 13.2427L68.6652 13.2419C68.5272 13.356 68.3749 13.4521 68.2169 13.5246C68.1415 13.5652 68.0582 13.605 67.9843 13.6298C67.9347 13.649 67.893 13.6697 67.8521 13.6817L67.8442 13.6809C67.8033 13.693 67.7704 13.7049 67.7373 13.7177C66.6753 14.0146 65.5004 13.6574 64.7843 12.7385C64.3949 12.2323 64.2052 11.6337 64.2061 11.0374C64.2129 10.2109 64.5847 9.39444 65.2965 8.8496C65.3734 8.79328 65.4502 8.73774 65.535 8.68217C65.6026 8.64086 65.6701 8.59955 65.7361 8.574C65.7692 8.56123 65.7943 8.54771 65.8195 8.53419L65.8203 8.52552C65.8526 8.52063 65.8776 8.5079 65.9028 8.49438C66.0442 8.42827 66.2 8.37943 66.3542 8.34635L68.895 4.61816L70.4104 2.39279C70.5936 2.4738 70.7769 2.55401 70.9507 2.65003L70.9656 2.6602C73.7926 4.12932 75.5408 7.0779 75.5018 10.2553C75.4981 10.4618 75.4857 10.6761 75.4655 10.8889Z" fill="#545A5E"/>
<path d="M75.465 10.888L75.4575 10.9668C75.4366 11.1875 75.4085 11.3996 75.3639 11.618C75.3388 11.7986 75.2972 11.9855 75.2478 12.1717C75.1604 12.5054 75.0573 12.8376 74.9321 13.1517C74.859 13.3357 74.7858 13.5196 74.6977 13.6942C74.5987 13.8995 74.4997 14.1048 74.3778 14.3C72.7863 17.0757 69.6628 18.8152 66.2657 18.4929C61.6311 18.0531 58.2203 13.936 58.6608 9.29357C59.1005 4.65902 63.2248 1.25683 67.8594 1.69658C68.6397 1.77062 69.3866 1.94488 70.0844 2.21786L70.6955 2.48262L70.7034 2.48337C73.6254 3.87402 75.5739 6.89012 75.5012 10.2552C75.4975 10.4617 75.4852 10.6752 75.465 10.888Z" fill="#353E49"/>
<path d="M75.4644 10.8881L75.4569 10.9669C75.436 11.1876 75.4079 11.3997 75.3633 11.6181C75.3382 11.7987 75.2967 11.9856 75.2472 12.1717C75.1677 12.5062 75.0654 12.8305 74.9394 13.1526C74.8741 13.3372 74.7931 13.5204 74.7129 13.6957L74.6971 13.6942L73.2045 13.5844L68.672 13.2418L68.6641 13.2411L68.6011 13.2351C66.9114 13.1066 65.6355 11.6335 65.764 9.94382C65.7999 9.39847 65.984 8.8831 66.289 8.43487L66.3531 8.34552L68.8859 4.61737L70.4093 2.39196C70.5925 2.47297 70.7757 2.55397 70.9495 2.64999L70.9645 2.65937C73.7915 4.12849 75.5396 7.07786 75.5006 10.2553C75.4969 10.4617 75.4846 10.6753 75.4644 10.8881Z" fill="#353E49"/>
<path d="M74.9401 13.1524C74.8749 13.3371 74.7939 13.5203 74.7136 13.6956L74.6978 13.6941C74.5988 13.8994 74.4998 14.1047 74.3779 14.2999L68.7871 13.8808L68.7082 13.8733C68.4087 13.8449 68.1287 13.7786 67.8596 13.6815L67.8438 13.68C66.3198 13.1457 65.2778 11.6391 65.4063 9.94943C65.4448 9.46001 65.5858 8.9803 65.8104 8.54035C65.8104 8.54035 65.8112 8.53247 65.8191 8.53322L65.8198 8.52534C65.8798 8.39583 65.9548 8.27571 66.0377 8.15633L66.1019 8.06698L70.0846 2.21779L70.6957 2.48255L70.7035 2.48329L70.9502 2.64985L70.9652 2.65922L71.1368 2.77889L67.3754 8.30711L67.0157 8.82968C66.7748 9.18856 66.6241 9.60371 66.5909 10.038C66.493 11.4045 67.5484 12.6022 68.8835 12.697L68.9623 12.7045L69.1837 12.7176L74.9322 13.1517L74.9401 13.1524Z" fill="#BDC3CB"/>
<path d="M69.7355 11.3122C69.5877 12.8355 68.2377 13.9544 66.7134 13.8177C65.1866 13.6744 64.0656 12.3203 64.2089 10.7934C64.3213 9.60079 65.1855 8.61472 66.3529 8.34694C66.643 8.28221 66.9423 8.26289 67.238 8.28936C68.7616 8.43392 69.8802 9.78628 69.7357 11.3098L69.7355 11.3122Z" fill="#BDC3CB"/>
<path d="M72.3979 5.36634C72.7753 5.72264 73.1034 6.12835 73.3722 6.57218C73.6422 7.00419 73.8599 7.46703 74.0209 7.94993C74.1845 8.4299 74.2901 8.92663 74.3353 9.43115C74.3816 9.93181 74.3767 10.4356 74.3206 10.9352C74.3163 10.9977 74.2633 11.0443 74.2008 11.0408C74.1392 11.0365 74.0917 10.9835 74.0961 10.9211L74.0967 10.914C74.1267 10.4309 74.1066 9.94628 74.0384 9.46661C73.9013 8.51516 73.5451 7.60814 72.9983 6.81743C72.7353 6.42904 72.4226 6.07808 72.0677 5.77082L72.053 5.75829C71.9414 5.66817 71.9244 5.50353 72.0153 5.39207C72.1062 5.2806 72.2701 5.26354 72.3816 5.35444C72.383 5.35617 72.3853 5.35718 72.3875 5.35898L72.3979 5.36634Z" fill="#D5DEE6"/>
<path d="M84.5627 33.8753C81.8372 31.5094 79.6547 28.9585 78.9513 25.0697C78.9048 24.8237 72.7943 28.6583 72.7943 28.6583C72.7943 28.6583 73.9689 22.8861 72.3082 20.5673C70.024 17.377 66.1282 17.0499 62.8324 18.9336C59.5961 20.7818 59.4442 27.5676 62.3719 38.6789C65.2979 49.7901 71.0886 54.8747 77.0672 52.9851C83.0474 51.0963 94.2838 42.3111 84.5627 33.8753Z" fill="#353E49"/>
<path d="M96.2628 32.5085C94.1012 32.2876 89.3361 33.3438 88.8611 37.9502C88.4048 42.3655 92.137 45.0012 95.3328 44.448C101.471 43.384 105.698 46.0372 105.698 46.0372L110.555 39.3657C110.555 39.3657 100.771 32.9683 96.2628 32.5085Z" fill="#353E49"/>
<path d="M113.256 40.8672L110.746 39.1437C110.55 39.0087 110.281 39.0577 110.146 39.2544L110.145 39.256L105.546 45.95C105.411 46.1467 105.46 46.4152 105.657 46.5509L112.774 51.4393C113.875 52.1947 115.381 51.9151 116.138 50.814L119.175 46.395L119.858 45.4027L122.17 42.0353C122.806 41.1109 122.572 39.8473 121.648 39.2128C121.648 39.212 121.647 39.2121 121.647 39.2121C120.992 38.7606 120.134 38.7348 119.451 39.1452L116.431 40.962C115.445 41.5541 114.205 41.5172 113.256 40.8672Z" fill="#A0ACB4"/>
<path d="M96.1007 32.468C91.581 32.1306 86.4247 32.7381 84.0395 33.1186C81.6544 33.5007 74.3155 35.2845 70.5344 37.5004C64.2135 41.2024 66.3156 47.6389 67.143 48.8803C70.1298 53.3616 74.18 54.1488 77.871 52.6973C83.7068 50.4031 90.3308 45.3977 96.4367 44.1667C99.4889 43.5525 101.921 41.3958 101.779 37.9619C101.644 34.7305 98.3598 32.6364 96.1007 32.468Z" fill="#353E49"/>
<path d="M71.976 29.6028C71.976 29.6028 80.7106 22.7468 80.7649 22.5082L89.6428 15.0818L88.1886 11.5773C88.1886 11.5773 67.38 17.0303 63.8119 18.3265C62.5501 18.7842 61.5736 19.9417 60.8876 21.7688C60.4756 22.8652 59.8498 26.5308 62.489 28.7726C67.3017 32.8606 71.976 29.6028 71.976 29.6028Z" fill="#353E49"/>
<path d="M92.6985 8.65047C93.8131 7.55453 96.2704 5.13495 96.8678 5.42343C97.445 5.70244 96.3199 8.93604 95.829 10.5527C95.6133 11.2617 94.61 11.8478 93.5423 11.6008C92.4221 11.3412 91.584 9.74641 92.6985 8.65047Z" fill="#A0ACB4"/>
<path d="M96.0369 12.1987C97.2635 12.9367 98.4625 13.2028 98.0179 13.7181C97.6829 14.1075 95.8438 13.7811 95.4028 13.7446C94.9001 13.7037 94.5886 13.0138 94.8999 12.5264C95.1092 12.1965 95.6079 11.9399 96.0369 12.1987Z" fill="#A0ACB4"/>
<path d="M88.2104 11.8621C88.0783 11.5182 88.2462 11.132 88.5891 10.9965C90.013 10.4752 91.342 9.72663 92.5238 8.77736C94.0656 7.49085 96.2048 8.79499 95.9025 10.2468C95.6377 11.5156 95.5886 11.8933 96.1137 12.2505C96.7404 12.6773 96.3695 13.9353 95.2232 13.6958C94.6404 13.5742 94.0652 13.4669 93.5382 13.6221C93.0121 13.7775 91.3848 14.6487 90.4274 15.3604C90.1214 15.5736 89.7008 15.4965 89.4876 15.1906C89.4564 15.1447 89.4299 15.0958 89.4105 15.0435L88.2104 11.8621Z" fill="#A0ACB4"/>
</svg>
